PathFileType        4      (X/Y/Z)      Walking.trc         
DataRate	CameraRate	NumFrames	NumMarkers	Units	OrigDataRate	OrigDataStartFrame	OrigNumFrames
100.0	100.0	14	18	mm	100.0	20	97
Frame#	Time	T2			T10			MANU			LASI			RASI			SACR			LTHI			LKNE			LTIB			LANK			LHEE			LTOE			RTHI			RKNE			RTIB			RANK			RHEE			RTOE			
		X1	Y1	Z1	X2	Y2	Z2	X3	Y3	Z3	X4	Y4	Z4	X5	Y5	Z5	X6	Y6	Z6	X7	Y7	Z7	X8	Y8	Z8	X9	Y9	Z9	X10	Y10	Z10	X11	Y11	Z11	X12	Y12	Z12	X13	Y13	Z13	X14	Y14	Z14	X15	Y15	Z15	X16	Y16	Z16	X17	Y17	Z17	X18	Y18	Z18	
20	3.43	246.93031059	1146.36129265	95.20232314	234.70801739	953.36248593	91.31949177	366.82781772	1084.35241492	97.47021865	376.50672821	752.10476848	2.00840661	382.19238441	759.64349997	213.09259208	258.41790161	794.18069464	104.6036486	352.7344847	424.28330704	-37.98615434	338.80878308	351.12413648	3.21286425	181.95108966	184.62240383	-80.16275211	97.55494164	137.63976002	-62.16866657	53.79045493	180.12222297	-69.42450582	48.1003803	33.94502696	19.92745595	418.96562686	451.46319471	235.1701096	413.62328096	377.32417788	185.63141324	367.73147462	153.89899793	247.03503229	313.61112303	60.84166988	228.68113896	254.787315	52.28910903	230.12497386	390.87625232	27.54536486	128.93185875	
21	3.44	257.59554084	1150.65748166	94.56968692	244.41869	957.62138065	90.95707629	377.08020269	1088.25162511	96.73554386	386.10396491	756.03544374	2.70360543	390.16179213	764.04592165	213.67280278	267.41406293	798.08469563	104.08669359	371.4295383	428.79171603	-37.16373357	359.41054781	355.40223878	4.08080513	203.72928655	188.18370188	-79.09228818	119.70451652	140.77762492	-60.92952816	74.71132477	182.37418496	-67.93848635	75.35508598	35.58494003	21.08602548	420.47995899	453.6244347	237.58135737	414.04563804	379.11351551	188.12118526	367.84327601	155.14851374	248.59604789	314.10568178	61.79489677	229.13716523	255.34633047	53.6949687	230.43549219	390.97276445	27.45659141	128.9717547	
22	3.45	268.28750105	1154.69719701	93.89023357	253.98552413	961.64386784	90.61786612	387.31798472	1091.80114308	95.9395477	395.48146682	759.67065133	3.35596416	397.93835846	768.04378255	214.20851682	276.18370742	801.64356762	103.58682943	390.07795412	433.43555375	-36.68434114	380.25076143	359.85040246	4.58771075	225.55157847	192.05322334	-78.16786178	142.04606785	144.05469695	-59.62585927	95.7925568	184.70146971	-66.24374753	103.26895163	37.48777814	22.30898299	421.96545108	455.57990139	239.86585277	414.53458976	380.7652582	190.4532458	367.87969823	156.33677442	250.02526344	314.46856687	62.73511067	229.49120387	255.76430995	55.0840582	230.58380246	391.04176727	27.38522495	129.02414573	
23	3.46	278.99899375	1158.40014117	93.18232092	263.42735639	965.34850576	90.30832578	397.54312315	1094.92875213	95.09698691	404.67662345	762.92486802	3.96670828	405.55937305	771.56185856	214.70891576	284.76266144	804.79244658	103.10657618	408.65549366	438.16725897	-36.53785118	401.27890615	364.44106741	4.74013778	247.45600953	196.10467881	-77.40962467	164.59664481	147.36448681	-58.32145148	117.06807694	186.98554419	-64.45937272	131.697867	39.64892516	23.55318307	423.52473451	457.27425002	241.98607227	415.17328847	382.21866362	192.59302174	367.86107536	157.42162248	251.29530648	314.70077095	63.64081923	229.7329257	256.03792467	56.43616611	230.55985065	391.09380888	27.32998743	129.08861956	
24	3.47	289.72100331	1161.70106597	92.4637569	272.76051043	968.66939266	90.03186908	407.7550797	1097.57670098	94.22233598	413.72650697	765.73097392	4.53656365	413.05848825	774.5459735	215.18276865	293.18596492	807.48202636	102.64481169	427.14667338	442.94508343	-36.69918964	422.44158409	369.15180152	4.56148812	269.49107316	200.20801119	-76.82359615	187.37941581	150.60585056	-57.07313348	138.56069869	189.1044732	-62.68695343	160.56378337	42.03123535	24.75505543	425.24611097	458.66501956	243.91086085	416.02910548	383.42388244	194.51422979	367.81200615	158.36664034	252.38580982	314.81182185	64.49040476	229.85746173	256.17383107	57.73017525	230.36360567	391.13927583	27.28839923	129.16243925	
25	3.48	300.44329394	1164.55100572	91.7510356	281.9989592	971.55734372	89.78886676	417.9512982	1099.70301733	93.32942702	422.66705481	768.04195201	5.06567826	420.46658192	776.96367815	215.63764216	301.48758025	809.67927319	102.19749232	445.54016022	447.73340823	-37.13157118	443.68085648	373.96425124	4.08874188	291.70679847	204.23982443	-76.40520962	210.42021435	153.68451636	-55.92903831	160.28798072	190.94023687	-61.00458945	189.83689029	44.56712561	25.83131803	427.20067126	459.72289592	245.61671205	417.15334468	384.34342659	196.1989889	367.75981025	159.14275819	253.28373124	314.81685865	65.26430216	229.86547773	256.18587801	58.94659111	230.00444027	391.18637885	27.25735898	129.24143003	
26	3.49	311.1550676	1166.91770067	91.05861141	291.15477355	973.98021463	89.57680344	428.12781495	1101.28218351	92.43107578	431.53241371	769.83155745	5.55356659	427.81279986	778.80391892	216.07915542	309.70028025	811.36737889	101.75852115	463.82360762	452.50192887	-37.79027196	464.93235222	378.8621254	3.3685493	314.14692931	208.09123726	-76.14338872	233.74506324	156.51258339	-54.92764409	182.26795866	192.38242014	-59.4649131	219.51764452	47.16515086	26.68495337	429.4410264	460.43160593	247.08862482	418.58177037	384.95301582	197.63768449	367.73276392	159.72953751	253.98339598	314.73408488	65.94704779	229.76271959	256.0924869	60.0699776	229.49955371	391.24013597	27.23361628	129.32084223	
27	3.5	321.84564236	1168.78523658	90.39826576	300.23878908	975.92240065	89.39056802	438.27995808	1102.30515683	91.53870133	440.35446121	771.09392351	5.99906631	435.1256312	780.07575597	216.51037801	317.85569369	812.54496329	101.32065825	481.97859651	457.22368864	-38.62650336	486.12350009	383.82827693	2.45310686	336.84310674	211.67221951	-76.02418292	257.37881276	159.00681838	-54.09712048	204.52321654	193.32848604	-58.09649415	249.62213849	49.71961173	27.21639459	432.00193156	460.78749412	248.32034351	420.33596265	385.24178478	198.82853264	367.7584594	160.11602335	254.48624285	314.58290631	66.52899175	229.559205	255.91452043	61.09109007	228.87186262	391.30220283	27.21410501	129.39609607	
28	3.51	332.50511945	1170.15296503	89.77861171	309.26141336	977.38358216	89.22284972	448.40309582	1102.77874237	90.66195195	449.16251391	771.84212517	6.40028758	442.43389803	780.80622704	216.93143867	325.98448567	813.22458681	100.87637177	499.9763265	461.87211816	-39.590998	507.17226945	388.84109461	1.39621925	359.81169706	214.91197443	-76.03315981	281.34496632	161.08654685	-53.45457417	227.08298302	193.68165908	-56.90755935	280.17197317	52.12143355	27.33842146	434.90274562	460.79876853	249.31389209	422.42543597	385.21185522	199.77681516	367.86255541	160.3010939	254.80027149	314.38288532	67.00751944	229.26825277	255.67383319	62.00851836	228.14778345	391.37131867	27.19613329	129.46332751	
29	3.52	343.12501189	1171.0338004	89.2047698	318.23349178	978.37682434	89.06460524	458.49339342	1102.72435121	89.80835499	457.98322787	772.10578432	6.75453318	449.76757532	781.03748507	217.33936826	334.1166427	813.43068509	100.41854624	517.77464493	466.417417	-40.6369985	527.98678932	393.87056122	0.24990245	383.05344122	217.75560128	-76.15609135	305.66654061	162.67184006	-53.00497752	249.98373013	193.34800064	-55.8907367	311.18806337	54.26853153	26.99209215	438.15131256	460.48436077	250.07845243	424.85035803	384.87729485	200.49380796	368.06806474	160.29327912	254.93921496	314.15346197	67.3876948	228.90550384	255.39254852	62.82969602	227.35523994	391.44412008	27.17745701	129.51968108	
30	3.53	353.69880742	1171.45201773	88.67823491	327.16715345	978.92616995	88.90556288	468.54853741	1102.176202	88.98301157	466.84069557	771.92786695	7.05817878	457.15839004	780.8233668	217.72816057	342.2818223	813.19707951	99.94099111	535.31689043	470.82276808	-41.72243634	548.46613786	398.87445719	-0.93818457	406.55549266	220.15801146	-76.37790889	330.36743493	163.68257909	-52.73981041	273.26887735	192.23437318	-55.02754048	342.68693703	56.07412806	26.16052283	441.74857296	459.87234517	250.6287694	427.6046197	384.26250517	200.99548823	368.39518642	160.11006413	254.92149464	313.91423269	67.68230283	228.48801907	255.09295839	63.57119373	226.52209329	391.51610703	27.15628566	129.5633431	
31	3.54	364.2224375	1171.44069675	88.19694073	336.07656742	979.06388668	88.73473278	478.56838576	1101.17904969	88.18835985	475.75674035	771.36088395	7.30652428	464.64017276	780.22557394	218.08900966	350.50971457	812.5642452	99.43872075	552.53285347	475.04097922	-42.81118957	568.50245784	403.79526688	-2.1262847	430.29481812	222.07669271	-76.68033385	355.4733935	164.0388425	-52.63567432	296.9877817	190.24864223	-54.2915528	374.67796997	57.47199698	24.87761866	445.69309283	458.99790263	250.98335275	430.67896099	383.40010899	201.30115735	368.86156756	159.77673157	254.76904352	313.68547338	67.91132407	228.03347255	254.79782429	64.25828952	225.67504768	391.58260554	27.13127291	129.59336176	
32	3.55	374.69462436	1171.03896959	87.75551291	344.97855333	978.82754429	88.54089665	488.55550354	1099.78555343	87.42403135	484.75140298	770.46275626	7.49365266	472.24894639	779.30966685	218.4106766	358.83035649	811.57652973	98.90800438	569.3419288	479.012164	-43.8734008	587.98439242	408.55835377	-3.27898696	454.24154708	223.46522131	-77.03891652	381.0114036	163.66288962	-52.65329816	321.19357669	187.30278058	-53.64971368	407.16030864	58.41829618	23.22984507	449.98476108	457.9008839	251.16276211	434.06386105	382.32844363	201.43213734	369.48280418	159.32482991	254.50609926	313.48857669	68.10091749	227.55942657	254.53079719	64.92388284	224.83895914	391.63964039	27.10153229	129.60933858	
33	3.56	385.11708297	1170.28923732	87.3456877	353.89300371	978.25710152	88.31305395	498.51554815	1098.05342515	86.68682538	493.8436005	769.2926333	7.61235327	480.02273746	778.14108149	218.67994924	367.2743395	810.27951034	98.34620847	585.65827715	482.66299039	-44.88492023	606.80168806	413.07189562	-4.36662598	478.36081061	224.26928682	-77.42036106	407.00640675	162.48277953	-52.73742592	345.93897745	183.31874176	-53.06175181	440.11866936	58.89036424	21.35051144	454.62713265	456.62310273	251.18820693	437.75194498	381.08880029	201.41068106	370.27297829	158.79037944	254.15806408	313.34615436	68.28202352	227.08268253	254.31668925	65.60687843	224.03640185	391.68469248	27.06669666	129.61108983	
